<svg width="28" height="25" viewBox="0 0 28 25" fill="none" xmlns="http://www.w3.org/2000/svg">
<path d="M0 8.92857C0 6.95871 1.56953 5.35714 3.5 5.35714C3.52734 5.35714 3.56016 5.35714 3.5875 5.35714C3.99219 3.32031 5.75859 1.78571 7.875 1.78571C8.69531 1.78571 9.46094 2.01451 10.1117 2.41071C10.8391 0.982143 12.3102 0 14 0C15.6898 0 17.1609 0.982143 17.8883 2.41071C18.5391 2.01451 19.3047 1.78571 20.125 1.78571C22.2414 1.78571 24.0078 3.32031 24.4125 5.35714C24.4398 5.35714 24.4727 5.35714 24.5 5.35714C26.4305 5.35714 28 6.95871 28 8.92857C28 9.58147 27.8305 10.1897 27.5297 10.7143H0.470313C0.169531 10.1897 0 9.58147 0 8.92857ZM0 14.029C0 13.1864 0.672656 12.5 1.49844 12.5H26.5016C27.3273 12.5 28 13.1864 28 14.029C28 17.9632 25.5719 21.3225 22.1648 22.6283L22.0664 23.4375C21.957 24.3304 21.2133 25 20.3273 25H7.66719C6.78672 25 6.0375 24.3304 5.92813 23.4375L5.82969 22.6339C2.42812 21.3225 0 17.9632 0 14.029Z" fill="#8C8E99"/>
</svg>
