<svg width="28" height="24" viewBox="0 0 28 24" fill="none" xmlns="http://www.w3.org/2000/svg">
<g clip-path="url(#clip0_110_131)">
<path d="M9.09999 16.5C14.1269 16.5 18.2 12.8062 18.2 8.25C18.2 3.69375 14.1269 0 9.09999 0C4.07312 0 -9.46184e-06 3.69375 -9.46184e-06 8.25C-9.46184e-06 10.0594 0.643115 11.7328 1.73249 13.0969C1.57937 13.5375 1.35187 13.9266 1.11124 14.2547C0.90124 14.5453 0.686866 14.7703 0.529366 14.925C0.450616 15 0.384991 15.0609 0.341241 15.0984C0.319366 15.1172 0.301866 15.1312 0.293116 15.1359L0.284366 15.1453C0.0437405 15.3375 -0.0612595 15.675 0.0349905 15.9797C0.131241 16.2844 0.398116 16.5 0.699991 16.5C1.65374 16.5 2.61624 16.2375 3.41687 15.9141C3.81937 15.75 4.19562 15.5672 4.52374 15.3797C5.86687 16.0922 7.42874 16.5 9.09999 16.5ZM19.6 8.25C19.6 13.5141 15.2644 17.4797 10.1281 17.9531C11.1912 21.4406 14.7175 24 18.9 24C20.5712 24 22.1331 23.5922 23.4806 22.8797C23.8087 23.0672 24.1806 23.25 24.5831 23.4141C25.3837 23.7375 26.3462 24 27.3 24C27.6019 24 27.8731 23.7891 27.965 23.4797C28.0569 23.1703 27.9562 22.8328 27.7112 22.6406L27.7025 22.6312C27.6937 22.6219 27.6762 22.6125 27.6544 22.5938C27.6106 22.5562 27.545 22.5 27.4662 22.4203C27.3087 22.2656 27.0944 22.0406 26.8844 21.75C26.6437 21.4219 26.4162 21.0281 26.2631 20.5922C27.3525 19.2328 27.9956 17.5594 27.9956 15.7453C27.9956 11.3953 24.2812 7.82812 19.5694 7.51875C19.5869 7.75781 19.5956 8.00156 19.5956 8.24531L19.6 8.25Z" fill="#8C8E99"/>
</g>
<defs>
<clipPath id="clip0_110_131">
<rect width="28" height="24" fill="white"/>
</clipPath>
</defs>
</svg>
