<svg width="28" height="25" viewBox="0 0 28 25" fill="none" xmlns="http://www.w3.org/2000/svg">
<g clip-path="url(#clip0_110_134)">
<path d="M27.9903 12.4756C27.9903 13.3545 27.2611 14.043 26.4347 14.043H24.8792L24.9132 21.8652C24.9132 21.9971 24.9035 22.1289 24.8889 22.2607V23.0469C24.8889 24.126 24.0188 25 22.9444 25H22.1667C22.1132 25 22.0597 25 22.0063 24.9951C21.9382 25 21.8701 25 21.8021 25H20.2222H19.0556C17.9813 25 17.1111 24.126 17.1111 23.0469V21.875V18.75C17.1111 17.8857 16.416 17.1875 15.5556 17.1875H12.4444C11.584 17.1875 10.8889 17.8857 10.8889 18.75V21.875V23.0469C10.8889 24.126 10.0188 25 8.94444 25H7.77778H6.22708C6.15417 25 6.08125 24.9951 6.00833 24.9902C5.95 24.9951 5.89167 25 5.83333 25H5.05556C3.98125 25 3.11111 24.126 3.11111 23.0469V17.5781C3.11111 17.5342 3.11111 17.4854 3.11597 17.4414V14.043H1.55556C0.680556 14.043 0 13.3594 0 12.4756C0 12.0361 0.145833 11.6455 0.486111 11.3037L12.95 0.390625C13.2903 0.0488281 13.6792 0 14.0194 0C14.3597 0 14.7486 0.0976562 15.0403 0.341797L27.4556 11.3037C27.8444 11.6455 28.0389 12.0361 27.9903 12.4756Z" fill="#8C8E99"/>
</g>
<defs>
<clipPath id="clip0_110_134">
<rect width="28" height="25" fill="white"/>
</clipPath>
</defs>
</svg>
