<svg width="16" height="17" viewBox="0 0 16 17" fill="none" xmlns="http://www.w3.org/2000/svg">
<path d="M15 7.2002H9V1.2002C9 0.934979 8.89464 0.680625 8.70711 0.493089C8.51957 0.305552 8.26522 0.200195 8 0.200195C7.73478 0.200195 7.48043 0.305552 7.29289 0.493089C7.10536 0.680625 7 0.934979 7 1.2002V7.2002H1C0.734784 7.2002 0.48043 7.30555 0.292893 7.49309C0.105357 7.68063 0 7.93498 0 8.2002C0 8.46541 0.105357 8.71977 0.292893 8.9073C0.48043 9.09484 0.734784 9.2002 1 9.2002H7V15.2002C7 15.4654 7.10536 15.7198 7.29289 15.9073C7.48043 16.0948 7.73478 16.2002 8 16.2002C8.26522 16.2002 8.51957 16.0948 8.70711 15.9073C8.89464 15.7198 9 15.4654 9 15.2002V9.2002H15C15.2652 9.2002 15.5196 9.09484 15.7071 8.9073C15.8946 8.71977 16 8.46541 16 8.2002C16 7.93498 15.8946 7.68063 15.7071 7.49309C15.5196 7.30555 15.2652 7.2002 15 7.2002Z" fill="white"/>
</svg>
